# xmcd CD database file
#
# Track frame offsets:
#	150
#	18549
#	39282
#	43967
#	66533
#	79940
#	100986
#	121252
#	142467
#	162077
#	178883
#	198140
#	222589
#	242550
#	261263
#	274053
#
# Disc length: 3879 seconds
#
# Revision: 0
# Processed by: cddbd v1.5.1PL0 Copyright (c) Steve Scherf et al.
# Submitted via: Feurio! 1.68 - http://www.feurio.com
#
DISCID=f70f2510
DTITLE=Wall of Voodoo - Seven Days in Sammystown
DYEAR=1985
DGENRE=
TTITLE0=Far side of crazy
TTITLE1=this business of love
TTITLE2=Faded love
TTITLE3=Mona
TTITLE4=Room with a view
TTITLE5=Blackboard sky
TTITLE6=Big City
TTITLE7=Dark as a dungeon
TTITLE8=Museums
TTITLE9=Tragic vaudeville
TTITLE10=(don't spill my) courage
TTITLE11=Dance You Fuckers
TTITLE12=Wrong Way to Hollywood
TTITLE13=Far Side of Cracy
TTITLE14=Deep In The Jungle (Marc Morel)
TTITLE15=Wall Of Voodoo - Deep In The Jungle
EXTD=
EXTT0=
EXTT1=
EXTT2=
EXTT3=
EXTT4=
EXTT5=
EXTT6=
EXTT7=
EXTT8=
EXTT9=
EXTT10=
EXTT11=
EXTT12=
EXTT13=
EXTT14=
EXTT15=
PLAYORDER=
